Coordinates
version=1
nRows=32
nColumns=38
inDegrees=no

Units are S.I. units (second, meters, Newtons, ...)
If the header above contains a line with 'inDegrees', this indicates whether rotational values are in degrees (yes) or radians (no).

endheader
time	pelvis_tilt	pelvis_list	pelvis_rotation	pelvis_tx	pelvis_ty	pelvis_tz	hip_flexion_r	hip_adduction_r	hip_rotation_r	knee_angle_r	ankle_angle_r	subtalar_angle_r	mtp_angle_r	hip_flexion_l	hip_adduction_l	hip_rotation_l	knee_angle_l	ankle_angle_l	subtalar_angle_l	mtp_angle_l	lumbar_extension	lumbar_bending	lumbar_rotation	arm_flex_r	arm_add_r	arm_rot_r	elbow_flex_r	pro_sup_r	wrist_flex_r	wrist_dev_r	arm_flex_l	arm_add_l	arm_rot_l	elbow_flex_l	pro_sup_l	wrist_flex_l	wrist_dev_l
84.53	-2.99189	1.55359	-1.73741	0.697222	0.341321	0.929467	-0.144472	-0.0163626	-0.419884	0	-0.0397573	0	0	-0.127601	-0.0784071	-0.387404	0	-0.0760208	0	0	-0.172163	0.000611719	0.0503869	0.210759	-0.251616	0.800047	0.476148	1.20185	0	0	0.227777	-0.306792	0.269491	0.847137	1.36122	0	0
84.54	-3.03081	1.55187	-1.70043	0.697067	0.340837	0.929393	-0.145827	-0.0163875	-0.41839	0	-0.0395638	0	0	-0.129489	-0.0787234	-0.387521	0	-0.0751837	0	0	-0.172798	0.000585887	0.0497135	0.212929	-0.250106	0.795624	0.479627	1.2112	0	0	0.228065	-0.30753	0.273193	0.840494	1.35561	0	0
84.55	-3.06726	1.55001	-1.6663	0.69717	0.340314	0.929356	-0.147206	-0.0164517	-0.416747	0	-0.0392313	0	0	-0.131703	-0.0789644	-0.388482	0	-0.0744106	0	0	-0.173674	0.000536498	0.0497008	0.214041	-0.248679	0.786958	0.484185	1.21993	0	0	0.228473	-0.307813	0.277255	0.832017	1.35148	0	0
84.56	-3.09182	1.54805	-1.64425	0.6971	0.339644	0.929399	-0.148601	-0.0166101	-0.415144	0	-0.0391521	0	0	-0.134145	-0.0789972	-0.389833	0	-0.0737018	0	0	-0.174813	0.00027876	0.0501466	0.21433	-0.247246	0.774892	0.489416	1.22743	0	0	0.228922	-0.307734	0.281767	0.822641	1.34915	0	0
84.57	-3.10211	1.54654	-1.63698	0.696886	0.339077	0.929423	-0.148983	-0.0169183	-0.413993	0	-0.0385288	0	0	-0.135935	-0.0787334	-0.392145	0	-0.072835	0	0	-0.175973	-0.000391106	0.0515926	0.216181	-0.244001	0.763296	0.488226	1.23801	0	0	0.229912	-0.30734	0.286672	0.812128	1.34946	0	0
84.58	-3.12068	1.54411	-1.62075	0.697117	0.338855	0.929471	-0.151002	-0.0171736	-0.41131	0	-0.0391976	0	0	-0.139054	-0.078424	-0.394021	0	-0.072823	0	0	-0.177363	-0.000684746	0.0522181	0.213903	-0.243174	0.751835	0.493775	1.25	0	0	0.229518	-0.306254	0.290333	0.800201	1.35169	0	0
84.59	-3.13564	1.5421	-1.60753	0.696959	0.338072	0.929647	-0.152323	-0.0173072	-0.410082	0	-0.0395213	0	0	-0.141357	-0.0781129	-0.395434	0	-0.0725744	0	0	-0.179098	-0.000714307	0.052404	0.212059	-0.242939	0.739419	0.500355	1.25932	0	0	0.229629	-0.304752	0.29356	0.78728	1.35684	0	0
84.6	3.12798	1.54	-1.58866	0.696732	0.338004	0.929651	-0.153529	-0.0171347	-0.409763	0	-0.0399936	0	0	-0.143176	-0.0780562	-0.395899	0	-0.0723076	0	0	-0.181018	-0.000308402	0.0517077	0.210275	-0.242889	0.726256	0.506993	1.26424	0	0	0.229606	-0.302806	0.296314	0.773794	1.36422	0	0
84.61	3.11193	1.53844	-1.57353	0.696443	0.337393	0.9298	-0.154411	-0.0170641	-0.409147	0	-0.0404442	0	0	-0.1447	-0.077929	-0.396879	0	-0.0720593	0	0	-0.18233	-2.49064e-05	0.0511906	0.208108	-0.243068	0.714533	0.513895	1.26558	0	0	0.228875	-0.300516	0.298615	0.759907	1.37326	0	0
84.62	3.10151	1.53754	-1.56469	0.696204	0.336768	0.929956	-0.154645	-0.0173093	-0.407487	0	-0.0410723	0	0	-0.145689	-0.07749	-0.399068	0	-0.0718218	0	0	-0.18269	0.000205235	0.0512978	0.20568	-0.245293	0.714446	0.523203	1.23367	0	0	0.227975	-0.29341	0.28275	0.738656	1.45678	0	0
84.63	3.09504	1.53684	-1.55987	0.696036	0.336562	0.93	-0.154637	-0.0176762	-0.406008	0	-0.0413174	0	0	-0.146393	-0.0769648	-0.401509	0	-0.0716453	0	0	-0.182625	0.000170131	0.051042	0.203592	-0.246162	0.71145	0.528744	1.22236	0	0	0.225134	-0.29074	0.282889	0.724646	1.47047	0	0
84.64	3.0908	1.53634	-1.55653	0.695685	0.336085	0.93012	-0.154583	-0.0180577	-0.405357	0	-0.0417898	0	0	-0.146752	-0.0765166	-0.402788	0	-0.0716622	0	0	-0.182514	0.000157989	0.0500697	0.201895	-0.246867	0.70934	0.532926	1.21175	0	0	0.222074	-0.288114	0.283862	0.71022	1.48315	0	0
84.65	3.08895	1.53608	-1.55493	0.695405	0.335901	0.930114	-0.154209	-0.0184696	-0.405431	0	-0.0424558	0	0	-0.146501	-0.0761068	-0.402998	0	-0.0715911	0	0	-0.18222	0.00010579	0.0484491	0.200333	-0.247431	0.70796	0.536102	1.20333	0	0	0.218588	-0.285731	0.286088	0.69629	1.49518	0	0
84.66	3.08352	1.53597	-1.54935	0.69488	0.335379	0.930211	-0.153852	-0.0186666	-0.405759	0	-0.0429773	0	0	-0.146035	-0.0759931	-0.402507	0	-0.0712272	0	0	-0.181917	0.000224298	0.0463036	0.199056	-0.247818	0.70718	0.538068	1.19752	0	0	0.214374	-0.283643	0.289271	0.683102	1.50641	0	0
84.67	3.07925	1.53613	-1.5449	0.694515	0.334981	0.930224	-0.153151	-0.0190666	-0.405888	0	-0.0436143	0	0	-0.145172	-0.0757652	-0.401799	0	-0.0706906	0	0	-0.181381	0.00029187	0.044006	0.197904	-0.248171	0.706349	0.539432	1.19401	0	0	0.209618	-0.281742	0.293387	0.670317	1.51649	0	0
84.68	3.07521	1.53658	-1.54172	0.694101	0.334663	0.930221	-0.152205	-0.0195308	-0.405344	0	-0.0443963	0	0	-0.144414	-0.0754661	-0.40217	0	-0.0700121	0	0	-0.180264	0.000237198	0.042746	0.196451	-0.248325	0.705521	0.539432	1.1934	0	0	0.204134	-0.279913	0.298655	0.657853	1.52564	0	0
84.69	3.07182	1.53645	-1.53927	0.693843	0.334356	0.930255	-0.151918	-0.0199973	-0.404949	0	-0.045024	0	0	-0.144381	-0.0751566	-0.401996	0	-0.0696531	0	0	-0.179943	-1.67497e-05	0.0415266	0.194686	-0.247246	0.698721	0.537403	1.20983	0	0	0.197392	-0.281458	0.317815	0.651803	1.47866	0	0
84.7	3.07054	1.53635	-1.53873	0.693401	0.334099	0.930272	-0.151569	-0.0206377	-0.404471	0	-0.0455762	0	0	-0.144193	-0.074751	-0.401571	0	-0.0693283	0	0	-0.179684	-8.59726e-05	0.0402286	0.193448	-0.248034	0.701395	0.536902	1.20424	0	0	0.191583	-0.279152	0.322179	0.639455	1.49199	0	0
84.71	3.06859	1.53632	-1.53736	0.692871	0.333655	0.930314	-0.151201	-0.021343	-0.404186	0	-0.0460322	0	0	-0.143942	-0.0742909	-0.401212	0	-0.0688712	0	0	-0.179474	5.4886e-06	0.0390009	0.192003	-0.24913	0.703558	0.536569	1.20095	0	0	0.185638	-0.276784	0.327157	0.627494	1.5055	0	0
84.72	3.06359	1.53605	-1.53339	0.692608	0.333475	0.930286	-0.150947	-0.021919	-0.403602	0	-0.0465041	0	0	-0.144002	-0.0738333	-0.401353	0	-0.0683427	0	0	-0.179536	0.000120082	0.0384166	0.19039	-0.250024	0.704944	0.535219	1.19991	0	0	0.179508	-0.274559	0.332141	0.616271	1.51922	0	0
84.73	3.06237	1.53548	-1.5338	0.692194	0.333227	0.930303	-0.150988	-0.0225513	-0.402662	0	-0.0470701	0	0	-0.144569	-0.0731813	-0.402556	0	-0.0675347	0	0	-0.180037	2.59736e-05	0.0384864	0.188521	-0.250784	0.70476	0.533643	1.20064	0	0	0.173451	-0.272196	0.336512	0.605496	1.53284	0	0
84.74	3.06498	1.53459	-1.53834	0.691902	0.332959	0.930361	-0.151367	-0.023358	-0.401462	0	-0.0476483	0	0	-0.145645	-0.0722703	-0.404005	0	-0.0668919	0	0	-0.181023	-0.000201	0.0390486	0.186522	-0.251535	0.703939	0.531503	1.20336	0	0	0.167279	-0.26997	0.341308	0.595855	1.5467	0	0
84.75	3.06603	1.53369	-1.54106	0.691345	0.332432	0.930454	-0.151816	-0.0241205	-0.40049	0	-0.0482119	0	0	-0.146711	-0.071363	-0.405412	0	-0.0663937	0	0	-0.182148	-0.000179206	0.0396967	0.184377	-0.252463	0.703398	0.528472	1.2081	0	0	0.161052	-0.267714	0.345956	0.587394	1.56053	0	0
84.76	3.06264	1.5326	-1.53913	0.690989	0.332347	0.930415	-0.152343	-0.0247969	-0.399707	0	-0.0488022	0	0	-0.147734	-0.0705403	-0.407009	0	-0.0658262	0	0	-0.183486	6.92079e-05	0.040335	0.182206	-0.253209	0.702522	0.5241	1.21434	0	0	0.154541	-0.265414	0.350137	0.580453	1.5708	0	0
84.77	3.06193	1.53128	-1.53956	0.690501	0.331964	0.930463	-0.153235	-0.025496	-0.399207	0	-0.0494852	0	0	-0.149006	-0.0696843	-0.408209	0	-0.0654375	0	0	-0.185287	0.000251937	0.0407635	0.18004	-0.253717	0.701056	0.519031	1.22133	0	0	0.14794	-0.263631	0.355763	0.575114	1.5708	0	0
84.78	3.06416	1.52954	-1.54233	0.689918	0.33146	0.930605	-0.154638	-0.0261632	-0.399179	0	-0.0502365	0	0	-0.150622	-0.0688526	-0.408085	0	-0.0651957	0	0	-0.187812	0.000305243	0.0408723	0.177975	-0.253948	0.698996	0.513277	1.22834	0	0	0.141488	-0.262376	0.362149	0.571078	1.5708	0	0
84.79	3.06122	1.52793	-1.54055	0.68946	0.331425	0.930644	-0.155792	-0.0267143	-0.398408	0	-0.0508226	0	0	-0.152311	-0.068208	-0.408792	0	-0.0647917	0	0	-0.189829	0.000531682	0.0418848	0.175437	-0.254007	0.695942	0.506786	1.23482	0	0	0.134401	-0.261429	0.368773	0.56836	1.5708	0	0
84.8	3.05837	1.52693	-1.5396	0.689056	0.331324	0.930655	-0.156371	-0.0274739	-0.396904	0	-0.0512906	0	0	-0.153687	-0.0674626	-0.410774	0	-0.0643309	0	0	-0.190876	0.00069716	0.0437519	0.172469	-0.253944	0.692368	0.499434	1.24104	0	0	0.126643	-0.26094	0.376013	0.567258	1.5708	0	0
84.81	3.06363	1.52505	-1.54604	0.688612	0.330899	0.930744	-0.158071	-0.0284408	-0.396326	0	-0.0515316	0	0	-0.155856	-0.0665759	-0.412255	0	-0.0637064	0	0	-0.192567	0.000110982	0.0458155	0.170309	-0.259275	0.724018	0.500482	1.11255	0	0	0.119463	-0.281826	0.4889	0.595818	1.22196	0	0
84.82	3.10779	1.53036	-1.59146	0.688408	0.331066	0.930029	-0.151337	-0.0311521	-0.402454	0	-0.0460646	0	0	-0.149698	-0.0638391	-0.417885	0	-0.0586471	0	0	-0.188183	-0.00264686	0.0439993	0.163194	-0.249689	0.676121	0.491809	1.04521	0	0	0.0930209	-0.280399	0.440141	0.63586	1.07259	0	0
84.83	3.06821	1.52293	-1.55213	0.687649	0.330501	0.930808	-0.159421	-0.0302027	-0.394903	0	-0.05251	0	0	-0.157827	-0.0650913	-0.412772	0	-0.063041	0	0	-0.195431	4.13152e-05	0.0475318	0.164885	-0.25971	0.722589	0.485612	1.11115	0	0	0.104365	-0.280655	0.492803	0.596525	1.22673	0	0
84.84	3.06467	1.52294	-1.54939	0.687158	0.33029	0.930879	-0.159126	-0.030923	-0.393705	0	-0.0532189	0	0	-0.157843	-0.0645659	-0.412832	0	-0.0630045	0	0	-0.196019	0.000480436	0.0484586	0.160455	-0.249653	0.660385	0.461047	1.29104	0	0	0.0968441	-0.261384	0.39812	0.570851	1.5708	0	0
